<svg width="108" height="108" viewBox="0 0 108 108" xmlns="http://www.w3.org/2000/svg">
    <!-- 1. Browser Window -->
    <path d="M18,12 L90,12 A6,6 0 0,1 96,18 L96,90 A6,6 0 0,1 90,96 L18,96 A6,6 0 0,1 12,90 L12,18 A6,6 0 0,1 18,12 Z" fill="#0F172A" stroke="#334155" stroke-width="2"/>
    <!-- 2. Top Bar -->
    <path d="M18,13 L90,13 A5,5 0 0,1 95,18 L95,34 L13,34 L13,18 A5,5 0 0,1 18,13 Z" fill="#1E293B"/>
    <!-- 3. Divider -->
    <path d="M12,34 L96,34" stroke="#334155" stroke-width="1.5"/>
    <!-- 4. Control Buttons -->
    <circle cx="20" cy="23" r="2" fill="#EF4444"/>
    <circle cx="27" cy="23" r="2" fill="#F59E0B"/>
    <circle cx="34" cy="23" r="2" fill="#10B981"/>
    <!-- 5. Search Bar -->
    <path d="M46,18 L88,18 A2,2 0 0,1 90,20 L90,26 A2,2 0 0,1 88,28 L46,28 A2,2 0 0,1 44,26 L44,20 A2,2 0 0,1 46,18 Z" fill="#0F172A"/>
    <!-- 6. Compass -->
    <circle cx="54" cy="65" r="18" fill="none" stroke="#FFFFFF" stroke-width="3"/>
    <path d="M54,51 L58,65 L50,65 Z" fill="#EF4444"/>
    <path d="M54,79 L58,65 L50,65 Z" fill="#F8FAFC"/>
</svg>
